# xmcd
#
# Track frame offsets: 
#        150
#        12832
#        28077
#        41957
#        54327
#        68497
#        82710
#        97657
#        115417
#        129610
#        145205
#
# Disc length: 2079 seconds
#
# Revision: 0
# Processed by: cddbd v1.5.2PL0 Copyright (c) Steve Scherf et al.
# Submitted via: ExactAudioCopy v0.99pb4
#
DISCID=86081d0b
DTITLE=Li'l Mo and The Monicats - Hearts in My Dream
DYEAR=1900
DGENRE=Country
TTITLE0=Hearts In My Dream
TTITLE1=It Just Doesn't Add Up
TTITLE2=Twice The Lovin' (In Half The Time)
TTITLE3=Wait'll I Get You Home
TTITLE4=The Great Indoors
TTITLE5=Still Cryin'
TTITLE6=The Sun Keeps Shining
TTITLE7=I'm Still Walkin'
TTITLE8=Oh Baby!
TTITLE9=Fess Up
TTITLE10=I Will Give My Love
EXTD=
EXTT0=
EXTT1=
EXTT2=
EXTT3=
EXTT4=
EXTT5=
EXTT6=
EXTT7=
EXTT8=
EXTT9=
EXTT10=
PLAYORDER=
